<svg xmlns="http://www.w3.org/2000/svg" width="128" height="128" viewBox="-64 -64 128 128">
        <defs>
          <linearGradient id="gradient" x1="0" y1="0" x2="1" y2="1">
            <stop offset="0%" stop-color="#B19BE6" />
            <stop offset="75%" stop-color="#6B50A9" />
          </linearGradient>
          <filter id="shadow" x="-20" y="-20" height="150" width="150" >
            <feGaussianBlur in="SourceAlpha" stdDeviation="3"/>
            <feOffset dx="0" dy="2" result="offsetblur"/>
            <feComponentTransfer>
              <feFuncA type="linear" slope="0.2"/>
            </feComponentTransfer>
            <feMerge>
              <feMergeNode/>
              <feMergeNode in="SourceGraphic"/>
            </feMerge>
          </filter>
          <mask id="mask"><rect width="96" height="96" fill="white" x="-48" y="-48" rx="24" /></mask>
        </defs>

        <rect width="96" height="96" fill="#6B50A9" rx="24" x="-48" y="-48" filter="url(#shadow)" />

        <path d="M -48,-48 C -34.297057315022435,-48 6.565995809177375,-56.05329587028049 20.514713424887816,-48 C 34.46343104059825,-39.94670412971951 31.463707135389953,-14.631973530121478 21.743588078552193,-7.733520648597526 C 12.023469021714432,-0.8350677670735749 -14.137164243590544,-15.894689456014202 -28.08588185930098,-13.507735592380243 C -42.03459947501142,-11.120781728746293 -44.017176371860195,11.099701551096182 -48,4.20124866957223 C -51.982823628139805,-2.697204211951722 -48,-37.55975026608555 -48,-48" fill="url(#gradient)" opacity="0.8" mask="url(#mask)" />
        <path d="M -48,-48 C -20.59411463004487,-48 61.131991618354746,-64.10659174056099 89.02942684977563,-48 C 116.9268620811965,-31.893408259439013 110.9274142707799,18.736052939757045 91.48717615710439,32.53295870280495 C 72.04693804342887,46.32986446585285 19.725671512818913,16.210621087971596 -8.171763718601959,20.984528815239514 C -36.06919895002284,25.758436542507415 -40.03435274372038,70.19940310219236 -47.99999999999999,56.40249733914446 C -55.9656472562796,42.60559157609656 -47.99999999999999,-27.119500532171106 -48,-48" fill="url(#gradient)" opacity="0.6" mask="url(#mask)" />
        <path d="M -48,-48 C 6.8117707399102585,-48 170.2639832367095,-80.21318348112197 226.05885369955126,-48 C 281.853724162393,-15.786816518878027 269.8548285415598,85.47210587951409 230.97435231420877,113.0659174056099 C 192.09387608685773,140.6597289317057 87.45134302563783,80.42124217594319 31.656472562796083,89.96905763047903 C -24.138397900045668,99.51687308501482 -32.06870548744076,188.39880620438473 -47.999999999999986,160.80499467828892 C -63.931294512559205,133.21118315219312 -47.999999999999986,-6.239001064342212 -48,-48" fill="url(#gradient)" opacity="0.4" mask="url(#mask)" />

        <text
          fill="white"
          font-family="Roboto,Helvetica,sans-serif"
          font-size="40"
          x="-36"
          y="32"
        >
          sa
        </text>
      </svg>