<svg xmlns="http://www.w3.org/2000/svg" width="128" height="128" viewBox="-64 -64 128 128">
        <defs>
          <linearGradient id="gradient" x1="0" y1="0" x2="1" y2="1">
            <stop offset="0%" stop-color="#4B5874" />
            <stop offset="75%" stop-color="#95A7CA" />
          </linearGradient>
          <filter id="shadow" x="-20" y="-20" height="150" width="150" >
            <feGaussianBlur in="SourceAlpha" stdDeviation="3"/>
            <feOffset dx="0" dy="2" result="offsetblur"/>
            <feComponentTransfer>
              <feFuncA type="linear" slope="0.2"/>
            </feComponentTransfer>
            <feMerge>
              <feMergeNode/>
              <feMergeNode in="SourceGraphic"/>
            </feMerge>
          </filter>
          <mask id="mask"><rect width="108" height="108" fill="white" x="-54" y="-54" rx="27" /></mask>
        </defs>

        <rect width="108" height="108" fill="#95A7CA" rx="27" x="-54" y="-54" filter="url(#shadow)" />

        <path d="M -54,-54 C -40.61322615322584,-54 2.504725210734229,-60.021269109175265 12.933869233870794,-54 C 23.36301325700736,-47.97873089082473 8.493840279106113,-29.15675702029366 -1.8542798843171795,-23.893654454123645 C -12.202400047740472,-18.63055188795363 -28.377587560109106,-41.29770550939497 -38.80673158324566,-27.684487169149932 C -49.23587560638222,-14.0712688289049 -50.96134631664912,49.43553981327151 -53.99999999999999,44.1724372471015 C -57.03865368335086,38.90933468093149 -53.99999999999999,-34.365512550579695 -54,-54" fill="url(#gradient)" opacity="0.8" mask="url(#mask)" />
        <path d="M -54,-54 C -27.22645230645168,-54 59.00945042146846,-66.04253821835053 79.86773846774159,-54 C 100.72602651401472,-41.95746178164946 70.98768055821222,-4.31351404058732 50.29144023136564,6.21269109175271 C 29.595199904519056,16.738896224092738 -2.7551751202182118,-28.59541101878994 -23.613463166491318,-1.3689743382998643 C -44.471751212764445,25.8574623421902 -47.92269263329825,152.87107962654304 -53.999999999999986,142.344874494203 C -60.077307366701724,131.81866936186296 -53.999999999999986,-14.731025101159396 -54,-54" fill="url(#gradient)" opacity="0.6" mask="url(#mask)" />
        <path d="M -54,-54 C -0.45290461290336026,-54 172.01890084293692,-78.08507643670107 213.73547693548318,-54 C 255.45205302802944,-29.91492356329892 195.97536111642444,45.37297191882536 154.58288046273128,66.42538218350542 C 113.19039980903811,87.47779244818548 48.48964975956358,-3.1908220375798777 6.773073667017364,51.26205132340027 C -34.943502425528884,105.7149246843804 -41.8453852665965,359.7421592530861 -53.99999999999998,338.689748988406 C -66.15461473340345,317.6373387237259 -53.99999999999998,24.537949797681208 -54,-54" fill="url(#gradient)" opacity="0.4" mask="url(#mask)" />

        <text
          fill="white"
          font-family="Roboto,Helvetica,sans-serif"
          font-size="45"
          x="-40.5"
          y="36"
        >
          sa
        </text>
      </svg>